<svg id="Layer_1" data-name="Layer 1" xmlns="http://www.w3.org/2000/svg" xmlns:xlink="http://www.w3.org/1999/xlink" viewBox="0 0 37.92 37.92"><defs><style>.cls-1,.cls-2,.cls-4{fill:#231f20;}.cls-1{clip-rule:evenodd;}.cls-2{fill-rule:evenodd;}.cls-3{clip-path:url(#clip-path);}</style><clipPath id="clip-path"><path class="cls-1" d="M22.7,11.87H18.89L21.84,26h4.68l3-14.18H25.67L24.2,22.55h0Zm-9,2.7a4,4,0,0,1,.23,1.65V17h3.47v-.89a6.62,6.62,0,0,0-.24-1.86,3.56,3.56,0,0,0-.77-1.41,3.45,3.45,0,0,0-1.38-.9,5.9,5.9,0,0,0-2.06-.32A6.15,6.15,0,0,0,10.6,12a3.28,3.28,0,0,0-1.52,1.26,5.92,5.92,0,0,0-.82,2.28A20.76,20.76,0,0,0,8,19a24.12,24.12,0,0,0,.2,3.38A6,6,0,0,0,9,24.65a3,3,0,0,0,1.5,1.26,6.84,6.84,0,0,0,2.46.38,7.49,7.49,0,0,0,1.68-.19,3.35,3.35,0,0,0,1.45-.73,3.82,3.82,0,0,0,1-1.5,6.58,6.58,0,0,0,.39-2.44V20.38H14q0,1,0,1.68a5.31,5.31,0,0,1-.16,1.06,1.09,1.09,0,0,1-.33.57.84.84,0,0,1-.54.17.92.92,0,0,1-.64-.22,1.47,1.47,0,0,1-.37-.77,8.7,8.7,0,0,1-.16-1.5q0-.94,0-2.37t0-2.37a8.7,8.7,0,0,1,.16-1.5,1.47,1.47,0,0,1,.37-.77.92.92,0,0,1,.64-.22A.79.79,0,0,1,13.68,14.56ZM18.78-.1A18.82,18.82,0,0,1,37.35,19,18.82,18.82,0,0,1,18.78,38,18.82,18.82,0,0,1,.2,19,18.82,18.82,0,0,1,18.78-.1Z"/></clipPath></defs><title>telefono</title><path class="cls-2" d="M22.7,11.87H18.89L21.84,26h4.68l3-14.18H25.67L24.2,22.55h0Zm-9,2.7a4,4,0,0,1,.23,1.65V17h3.47v-.89a6.62,6.62,0,0,0-.24-1.86,3.56,3.56,0,0,0-.77-1.41,3.45,3.45,0,0,0-1.38-.9,5.9,5.9,0,0,0-2.06-.32A6.15,6.15,0,0,0,10.6,12a3.28,3.28,0,0,0-1.52,1.26,5.92,5.92,0,0,0-.82,2.28A20.76,20.76,0,0,0,8,19a24.12,24.12,0,0,0,.2,3.38A6,6,0,0,0,9,24.65a3,3,0,0,0,1.5,1.26,6.84,6.84,0,0,0,2.46.38,7.49,7.49,0,0,0,1.68-.19,3.35,3.35,0,0,0,1.45-.73,3.82,3.82,0,0,0,1-1.5,6.58,6.58,0,0,0,.39-2.44V20.38H14q0,1,0,1.68a5.31,5.31,0,0,1-.16,1.06,1.09,1.09,0,0,1-.33.57.84.84,0,0,1-.54.17.92.92,0,0,1-.64-.22,1.47,1.47,0,0,1-.37-.77,8.7,8.7,0,0,1-.16-1.5q0-.94,0-2.37t0-2.37a8.7,8.7,0,0,1,.16-1.5,1.47,1.47,0,0,1,.37-.77.92.92,0,0,1,.64-.22A.79.79,0,0,1,13.68,14.56ZM18.78-.1A18.82,18.82,0,0,1,37.35,19,18.82,18.82,0,0,1,18.78,38,18.82,18.82,0,0,1,.2,19,18.82,18.82,0,0,1,18.78-.1Z"/><g class="cls-3"><rect class="cls-4" x="-4.69" y="-4.99" width="46.92" height="47.9"/></g></svg>