<?xml version="1.0" encoding="utf-8"?>
<!-- Generator: Adobe Illustrator 21.1.0, SVG Export Plug-In . SVG Version: 6.00 Build 0)  -->
<svg version="1.0" id="Layer_1" xmlns="http://www.w3.org/2000/svg" xmlns:xlink="http://www.w3.org/1999/xlink" x="0px" y="0px"
	 viewBox="0 0 38 38" style="enable-background:new 0 0 38 38;" xml:space="preserve">
<style type="text/css">
	.st0{fill:#010101;}
	.st1{fill:#FFFFFF;}
	.st2{clip-path:url(#SVGID_2_);}
	.st3{clip-path:url(#SVGID_4_);enable-background:new    ;}
	.st4{clip-path:url(#SVGID_6_);}
	.st5{clip-path:url(#SVGID_8_);}
	.st6{clip-path:url(#SVGID_10_);fill:#6D3A3A;}
	.st7{clip-path:url(#SVGID_12_);fill:none;stroke:#9B9B9B;stroke-width:2;stroke-miterlimit:10;stroke-dasharray:2,2;}
	.st8{clip-path:url(#SVGID_14_);fill:none;stroke:#9B9B9B;stroke-width:9;stroke-miterlimit:10;stroke-dasharray:2,2;}
	.st9{clip-path:url(#SVGID_16_);}
	.st10{clip-path:url(#SVGID_18_);fill:#E94860;}
	.st11{clip-path:url(#SVGID_20_);}
	.st12{clip-path:url(#SVGID_22_);fill:#E94860;}
	.st13{clip-path:url(#SVGID_24_);}
	.st14{clip-path:url(#SVGID_26_);}
	.st15{clip-path:url(#SVGID_30_);enable-background:new    ;}
	.st16{clip-path:url(#SVGID_32_);}
	.st17{clip-path:url(#SVGID_34_);}
	.st18{clip-path:url(#SVGID_36_);fill:#E94860;}
	.st19{clip-path:url(#SVGID_38_);}
	.st20{clip-path:url(#SVGID_40_);}
	.st21{clip-path:url(#SVGID_42_);fill:#010101;}
</style>
<g>
	<defs>
		<rect id="SVGID_13_" x="-1883" y="-1143.2" width="1920" height="3240"/>
	</defs>
	<clipPath id="SVGID_2_">
		<use xlink:href="#SVGID_13_"  style="overflow:visible;"/>
	</clipPath>
</g>
<g>
	<defs>
		<path id="SVGID_23_" d="M11.5,13.2c0,0.9,0.8,1.7,1.8,1.7c1,0,1.8-0.8,1.8-1.7c0-0.9-0.8-1.7-1.8-1.7
			C12.3,11.5,11.5,12.3,11.5,13.2z M11.7,25.5h3.1v-9.4h-3.1V25.5z M26.5,25.5L26.5,25.5l0-5.2c0-2.5-0.6-4.5-3.7-4.5
			c-1.5,0-2.5,0.8-2.9,1.5h0v-1.3h-3v9.4h3.1v-4.7c0-1.2,0.2-2.4,1.9-2.4c1.6,0,1.6,1.4,1.6,2.5v4.6H26.5z M0.5,19
			C0.5,8.8,8.8,0.5,19,0.5c10.2,0,18.5,8.3,18.5,18.5c0,10.2-8.3,18.5-18.5,18.5C8.8,37.5,0.5,29.2,0.5,19z"/>
	</defs>
	<use xlink:href="#SVGID_23_"  style="overflow:visible;fill-rule:evenodd;clip-rule:evenodd;"/>
	<clipPath id="SVGID_4_">
		<use xlink:href="#SVGID_23_"  style="overflow:visible;"/>
	</clipPath>
	<rect x="-4.5" y="-4.5" style="clip-path:url(#SVGID_4_);" width="47" height="47"/>
</g>
<g>
	<defs>
		<rect id="SVGID_25_" width="38" height="38"/>
	</defs>
	<clipPath id="SVGID_6_">
		<use xlink:href="#SVGID_25_"  style="overflow:visible;"/>
	</clipPath>
</g>
</svg>
