<svg id="Layer_1" data-name="Layer 1" xmlns="http://www.w3.org/2000/svg" xmlns:xlink="http://www.w3.org/1999/xlink" viewBox="0 0 38 38"><defs><style>.cls-1,.cls-2,.cls-4{fill:#231f20;}.cls-1{clip-rule:evenodd;}.cls-2{fill-rule:evenodd;}.cls-3{clip-path:url(#clip-path);}</style><clipPath id="clip-path"><path class="cls-1" d="M11.5,13.21a1.82,1.82,0,1,0,1.81-1.71A1.78,1.78,0,0,0,11.5,13.21Zm.24,12.29h3.15V16.09H11.74Zm14.75,0h0V20.33c0-2.53-.58-4.47-3.72-4.47a3.3,3.3,0,0,0-2.94,1.52h0V16.1h-3v9.4h3.1V20.84c0-1.23.25-2.41,1.86-2.41s1.61,1.4,1.61,2.49V25.5ZM.5,19A18.5,18.5,0,1,1,19,37.5,18.5,18.5,0,0,1,.5,19Z"/></clipPath></defs><title>telefono</title><path class="cls-2" d="M11.5,13.21a1.82,1.82,0,1,0,1.81-1.71A1.78,1.78,0,0,0,11.5,13.21Zm.24,12.29h3.15V16.09H11.74Zm14.75,0h0V20.33c0-2.53-.58-4.47-3.72-4.47a3.3,3.3,0,0,0-2.94,1.52h0V16.1h-3v9.4h3.1V20.84c0-1.23.25-2.41,1.86-2.41s1.61,1.4,1.61,2.49V25.5ZM.5,19A18.5,18.5,0,1,1,19,37.5,18.5,18.5,0,0,1,.5,19Z"/><g class="cls-3"><rect class="cls-4" x="-4.5" y="-4.5" width="47" height="47"/></g></svg>