<?xml version="1.0" encoding="utf-8"?>
<!-- Generator: Adobe Illustrator 21.1.0, SVG Export Plug-In . SVG Version: 6.00 Build 0)  -->
<svg version="1.0" id="Layer_1" xmlns="http://www.w3.org/2000/svg" xmlns:xlink="http://www.w3.org/1999/xlink" x="0px" y="0px"
	 viewBox="0 0 10 10" style="enable-background:new 0 0 10 10;" xml:space="preserve">
<style type="text/css">
	.st0{display:none;clip-path:url(#SVGID_2_);}
</style>
<defs>
	<path id="SVGID_1_" d="M7.2,3.7l0.4-0.4V3.2H6.1l-1,2.3L4,3.2H2.5v0.1L3,3.9C3,3.9,3,4,3,4v2.1c0,0.1,0,0.2-0.1,0.2L2.4,6.9V7H4
		V6.9L3.4,6.3C3.4,6.3,3.3,6.2,3.3,6.1V4.3L4.7,7h0.2L6,4.3v2.2c0,0.1,0,0.1,0,0.1L5.5,6.9V7h2V6.9L7.2,6.6c0,0-0.1-0.1,0-0.1V3.8
		C7.1,3.8,7.1,3.7,7.2,3.7z M5,0c2.8,0,5,2.2,5,5c0,2.8-2.2,5-5,5c-2.8,0-5-2.2-5-5C0,2.2,2.2,0,5,0z"/>
</defs>
<use xlink:href="#SVGID_1_"  style="overflow:visible;fill-rule:evenodd;clip-rule:evenodd;"/>
<clipPath id="SVGID_2_">
	<use xlink:href="#SVGID_1_"  style="overflow:visible;"/>
</clipPath>
<g class="st0">
	<rect x="3.8" y="12.3" width="12.7" height="12.7"/>
</g>
</svg>
