<?xml version="1.0" encoding="utf-8"?>
<!-- Generator: Adobe Illustrator 21.1.0, SVG Export Plug-In . SVG Version: 6.00 Build 0)  -->
<svg version="1.0" id="Layer_1" xmlns="http://www.w3.org/2000/svg" xmlns:xlink="http://www.w3.org/1999/xlink" x="0px" y="0px"
	 viewBox="0 0 10 10" style="enable-background:new 0 0 10 10;" xml:space="preserve">
<style type="text/css">
	.st0{display:none;clip-path:url(#SVGID_2_);}
</style>
<g>
	<defs>
		<path id="SVGID_1_" d="M3,3.4c0,0.3,0.2,0.5,0.5,0.5C3.7,3.9,4,3.7,4,3.4C4,3.2,3.7,3,3.5,3C3.2,3,3,3.2,3,3.4z M3,6.8h0.9V4.2H3
			V6.8z M7,6.8L7,6.8l0-1.4c0-0.7-0.2-1.2-1-1.2c-0.4,0-0.7,0.2-0.8,0.4h0V4.2H4.4v2.5h0.8V5.5c0-0.3,0.1-0.7,0.5-0.7
			c0.4,0,0.4,0.4,0.4,0.7v1.2H7z M0,5c0-2.8,2.2-5,5-5c2.8,0,5,2.2,5,5c0,2.8-2.2,5-5,5C2.2,10,0,7.8,0,5z"/>
	</defs>
	<use xlink:href="#SVGID_1_"  style="overflow:visible;fill-rule:evenodd;clip-rule:evenodd;"/>
	<clipPath id="SVGID_2_">
		<use xlink:href="#SVGID_1_"  style="overflow:visible;"/>
	</clipPath>
	<rect x="3.8" y="12.3" class="st0" width="12.7" height="12.7"/>
</g>
</svg>
