<?xml version="1.0" encoding="utf-8"?>
<!-- Generator: Adobe Illustrator 21.1.0, SVG Export Plug-In . SVG Version: 6.00 Build 0)  -->
<svg version="1.0" id="Layer_1" xmlns="http://www.w3.org/2000/svg" xmlns:xlink="http://www.w3.org/1999/xlink" x="0px" y="0px"
	 viewBox="0 0 10 10" style="enable-background:new 0 0 10 10;" xml:space="preserve">
<style type="text/css">
	.st0{display:none;clip-path:url(#SVGID_2_);}
</style>
<defs>
	<path id="SVGID_1_" d="M6.1,3.1H5l0.8,3.7h1.3l0.8-3.7h-1L6.5,5.9h0L6.1,3.1z M3.6,3.8c0,0.1,0.1,0.2,0.1,0.4v0.2h0.9V4.2
		c0-0.2,0-0.3-0.1-0.5c0-0.1-0.1-0.3-0.2-0.4C4.3,3.3,4.1,3.2,4,3.1C3.8,3.1,3.6,3.1,3.4,3.1c-0.2,0-0.5,0-0.6,0.1
		C2.6,3.2,2.5,3.3,2.4,3.5C2.3,3.6,2.2,3.8,2.2,4.1c0,0.2-0.1,0.5-0.1,0.9c0,0.3,0,0.6,0.1,0.9c0,0.2,0.1,0.4,0.2,0.6
		c0.1,0.2,0.2,0.3,0.4,0.3c0.2,0.1,0.4,0.1,0.7,0.1c0.2,0,0.3,0,0.5,0c0.1,0,0.3-0.1,0.4-0.2c0.1-0.1,0.2-0.2,0.3-0.4
		c0.1-0.2,0.1-0.4,0.1-0.6V5.3H3.7c0,0.2,0,0.3,0,0.4c0,0.1,0,0.2,0,0.3S3.6,6.2,3.6,6.2c0,0-0.1,0-0.1,0c-0.1,0-0.1,0-0.2-0.1
		c0,0-0.1-0.1-0.1-0.2c0-0.1,0-0.2,0-0.4c0-0.2,0-0.4,0-0.6c0-0.2,0-0.5,0-0.6c0-0.2,0-0.3,0-0.4c0-0.1,0.1-0.2,0.1-0.2
		c0,0,0.1-0.1,0.2-0.1C3.5,3.7,3.6,3.7,3.6,3.8z M5,0c2.8,0,5,2.2,5,5s-2.2,5-5,5c-2.8,0-5-2.2-5-5S2.2,0,5,0z"/>
</defs>
<use xlink:href="#SVGID_1_"  style="overflow:visible;fill-rule:evenodd;clip-rule:evenodd;"/>
<clipPath id="SVGID_2_">
	<use xlink:href="#SVGID_1_"  style="overflow:visible;"/>
</clipPath>
<g class="st0">
	<rect x="3.8" y="12.3" width="12.7" height="12.7"/>
</g>
</svg>
