<?xml version="1.0" encoding="utf-8"?>
<!-- Generator: Adobe Illustrator 21.1.0, SVG Export Plug-In . SVG Version: 6.00 Build 0)  -->
<svg version="1.0" id="Layer_1" xmlns="http://www.w3.org/2000/svg" xmlns:xlink="http://www.w3.org/1999/xlink" x="0px" y="0px"
	 viewBox="0 0 10 10" style="enable-background:new 0 0 10 10;" xml:space="preserve">
<style type="text/css">
	.st0{display:none;}
	.st1{display:none;clip-path:url(#SVGID_2_);}
</style>
<g class="st0">
	<rect x="3.8" y="12.3" width="12.7" height="12.7"/>
</g>
<g>
	<defs>
		<path id="SVGID_1_" d="M3.7,4.8l0.5-0.5c0.1-0.1,0.1-0.2,0.1-0.2C4.2,3.8,4.2,3.5,4.2,3.2C4.2,3.1,4,3,3.9,3H3.1
			C2.9,3,2.8,3.1,2.8,3.2c0,2.2,1.8,4,4.1,4c0.1,0,0.2-0.1,0.2-0.2V6.2C7.2,6.1,7.1,6,6.9,6c-0.3,0-0.6,0-0.9-0.1
			c-0.1,0-0.2,0-0.2,0.1L5.3,6.4C4.6,6.1,4.1,5.5,3.7,4.8z M5,0c2.8,0,5,2.2,5,5s-2.2,5-5,5c-2.8,0-5-2.2-5-5S2.2,0,5,0z"/>
	</defs>
	<use xlink:href="#SVGID_1_"  style="overflow:visible;fill-rule:evenodd;clip-rule:evenodd;"/>
	<clipPath id="SVGID_2_">
		<use xlink:href="#SVGID_1_"  style="overflow:visible;"/>
	</clipPath>
	<rect x="-1.3" y="-1.3" class="st1" width="12.6" height="12.6"/>
</g>
</svg>
