<svg id="Layer_1" data-name="Layer 1" xmlns="http://www.w3.org/2000/svg" xmlns:xlink="http://www.w3.org/1999/xlink" viewBox="0 0 37.92 37.92"><defs><style>.cls-1,.cls-2,.cls-3{fill:#231f20;}.cls-1{clip-rule:evenodd;}.cls-3{fill-rule:evenodd;}.cls-4{clip-path:url(#clip-path);}.cls-5{clip-path:url(#clip-path-2);}</style><clipPath id="clip-path"><path class="cls-1" d="M19,0A19,19,0,1,0,38,19,19,19,0,0,0,19,0Zm8.56,11.43L19,18.16l-8.85-6.77ZM28.4,26.1H9.22V14.25L18.06,21a1.52,1.52,0,0,0,.87.27,1.21,1.21,0,0,0,.78-.28L28.4,14Z"/></clipPath><clipPath id="clip-path-2"><rect class="cls-2" x="-0.04" y="-0.04" width="38" height="38"/></clipPath></defs><title>telefono</title><path class="cls-3" d="M19,0A19,19,0,1,0,38,19,19,19,0,0,0,19,0Zm8.56,11.43L19,18.16l-8.85-6.77ZM28.4,26.1H9.22V14.25L18.06,21a1.52,1.52,0,0,0,.87.27,1.21,1.21,0,0,0,.78-.28L28.4,14Z"/><g class="cls-4"><rect class="cls-2" x="-0.04" y="-0.04" width="38" height="38"/><g class="cls-5"><rect class="cls-2" x="-5.04" y="-5.04" width="48" height="48"/></g></g></svg>