<svg id="Layer_1" data-name="Layer 1" xmlns="http://www.w3.org/2000/svg" xmlns:xlink="http://www.w3.org/1999/xlink" viewBox="0 0 37.92 37.92"><defs><style>.cls-1,.cls-2,.cls-4{fill:#231f20;}.cls-1{clip-rule:evenodd;}.cls-2{fill-rule:evenodd;}.cls-3{clip-path:url(#clip-path);}</style><clipPath id="clip-path"><path class="cls-1" d="M26.94,14.1l1.52-1.35v-.3H23.21l-3.74,8.67-4.26-8.67H9.7v.3l1.77,2a.67.67,0,0,1,.24.58v7.8a.85.85,0,0,1-.26.77l-2,2.25v.29h5.66v-.3l-2-2.25a.88.88,0,0,1-.27-.77V16.37l5,10.06h.58l4.27-10.06v8c0,.21,0,.25-.15.39L21,26.16v.3h7.45v-.3l-1.48-1.35a.4.4,0,0,1-.17-.39V14.5A.4.4,0,0,1,26.94,14.1ZM19,.46A18.5,18.5,0,1,1,.46,19,18.5,18.5,0,0,1,19,.46Z"/></clipPath></defs><title>telefono</title><path class="cls-2" d="M26.94,14.1l1.52-1.35v-.3H23.21l-3.74,8.67-4.26-8.67H9.7v.3l1.77,2a.67.67,0,0,1,.24.58v7.8a.85.85,0,0,1-.26.77l-2,2.25v.29h5.66v-.3l-2-2.25a.88.88,0,0,1-.27-.77V16.37l5,10.06h.58l4.27-10.06v8c0,.21,0,.25-.15.39L21,26.16v.3h7.45v-.3l-1.48-1.35a.4.4,0,0,1-.17-.39V14.5A.4.4,0,0,1,26.94,14.1ZM19,.46A18.5,18.5,0,1,1,.46,19,18.5,18.5,0,0,1,19,.46Z"/><g class="cls-3"><rect class="cls-4" x="-4.54" y="-4.54" width="47" height="47"/></g></svg>