<svg id="Layer_1" data-name="Layer 1" xmlns="http://www.w3.org/2000/svg" xmlns:xlink="http://www.w3.org/1999/xlink" viewBox="0 0 37.92 37.92"><defs><style>.cls-1{fill:none;clip-rule:evenodd;}.cls-2{clip-path:url(#clip-path);}.cls-3{fill:#010101;}</style><clipPath id="clip-path"><path class="cls-1" d="M14.1,18.36l2-2a.91.91,0,0,0,.23-.92,10.27,10.27,0,0,1-.52-3.23.91.91,0,0,0-.9-.9H11.73a.91.91,0,0,0-.9.9A15.37,15.37,0,0,0,26.19,27.59a.91.91,0,0,0,.9-.9V23.53a.91.91,0,0,0-.9-.9A10.31,10.31,0,0,1,23,22.11a.9.9,0,0,0-.92.22l-2,2A13.69,13.69,0,0,1,14.1,18.36ZM19-.27A19,19,0,0,1,37.69,19,19,19,0,0,1,19,38.19,19,19,0,0,1,.22,19,19,19,0,0,1,19-.27Z"/></clipPath></defs><title>telefono</title><g class="cls-2"><rect class="cls-3" x="-4.71" y="-5.2" width="47.33" height="48.32"/></g></svg>